# Blender v2.78 (sub 0) OBJ File: 'preview.blend'
# www.blender.org
mtllib 13.mtl
o 13
v -22.250000 0.250000 12.250000
v -22.250000 0.000000 7.750000
v -22.250000 -0.000000 12.250000
v -22.250000 0.250000 7.750000
v -17.750000 0.250000 12.250000
v -21.750000 2.250000 11.750000
v -21.750000 2.000000 8.250000
v -21.750000 2.000000 8.500000
v -21.750000 2.500000 11.500000
v -21.750000 2.250000 8.750000
v -21.750000 2.500000 8.500000
v -21.750000 2.750000 11.250000
v -21.750000 3.000000 11.000000
v -21.750000 3.000000 9.000000
v -21.750000 3.000000 10.500000
v -21.750000 3.000000 9.500000
v -21.750000 3.250000 9.750001
v -21.750000 3.750000 10.250001
v -21.500000 0.500000 8.500000
v -21.500000 2.250000 11.500000
v -21.500000 2.250000 8.750000
v -21.500000 2.500000 11.250000
v -21.500000 2.500000 9.000000
v -21.500000 2.750000 10.250000
v -21.500000 2.750000 9.000000
v -21.500000 3.250000 9.750001
v -21.250000 2.750000 9.750000
v -20.250000 1.750000 11.500000
v -20.250000 0.500000 11.250000
v -20.250000 1.750000 11.250000
v -19.000000 1.000000 11.250000
v -21.250000 0.500000 11.500000
v -21.250000 0.500000 11.250000
v -19.750000 1.000000 11.500000
v -18.500000 0.500000 11.500000
v -18.500000 2.250000 11.500000
v -18.500000 2.500000 11.250000
v -18.500000 2.500000 9.000000
v -18.500000 2.750000 11.000000
v -18.500000 2.750000 9.750000
v -18.500000 2.750000 9.000000
v -18.500000 3.000000 10.250000
v -18.500000 3.000000 9.750001
v -18.250000 0.500000 11.750000
v -18.250000 2.000000 11.750000
v -18.250000 2.000000 8.500000
v -18.250000 2.500000 11.500000
v -18.250000 2.250000 8.750000
v -18.250000 2.750000 11.250000
v -18.250000 2.750000 9.000000
v -18.250000 3.000000 9.000000
v -18.250000 3.500000 10.500001
v -18.250000 3.750000 10.250001
v -17.750000 0.250000 7.750000
v -17.750000 -0.000000 12.250000
v -21.750000 0.500000 11.750000
v -21.750000 2.000000 11.750000
v -21.500000 2.000000 11.500000
v -21.500000 0.500000 11.500000
v -21.250000 1.750000 11.500000
v -19.750000 1.750000 11.500000
v -19.000000 1.750000 11.500000
v -21.750000 2.250000 11.500000
v -19.750000 1.000000 11.250000
v -21.750000 2.500000 11.250000
v -18.250000 3.250000 10.500001
v -18.250000 3.500000 10.250001
v -21.750000 3.500000 9.750001
v -21.500000 3.500000 9.750001
v -21.500000 2.750000 9.750000
v -18.750000 2.750000 9.750000
v -18.250000 3.250000 9.750001
v -18.250000 3.500000 9.750001
v -21.500000 3.000000 9.500000
v -21.500000 3.250000 9.500001
v -18.250000 3.000000 9.500000
v -18.500000 3.250000 9.500001
v -21.750000 2.750000 9.250000
v -21.500000 3.000000 9.250000
v -18.500000 3.000000 9.250000
v -21.750000 2.500000 8.750000
v -21.500000 2.500000 8.750000
v -21.500000 2.250000 8.500000
v -18.500000 2.250000 8.500000
v -21.750000 2.000000 11.500000
v -18.500000 2.000000 11.500000
v -18.250000 2.250000 11.500000
v -21.750000 2.250000 11.250000
v -21.500000 2.250000 11.250000
v -18.500000 2.250000 11.250000
v -21.750000 2.500000 11.000000
v -21.500000 2.500000 11.000000
v -18.500000 2.500000 11.000000
v -21.750000 3.000000 10.750000
v -21.500000 2.750000 10.750000
v -18.500000 2.750000 10.750000
v -21.750000 3.250000 10.500001
v -21.500000 3.000000 10.500000
v -18.500000 3.000000 10.500000
v -21.750000 3.500000 10.250001
v -21.500000 3.250000 10.250001
v -21.250000 2.750000 10.250000
v -21.250000 3.000000 10.250000
v -18.750000 2.750000 10.250000
v -18.750000 3.000000 10.250000
v -18.500000 2.750000 10.250000
v -18.500000 3.250000 10.250001
v -21.750000 3.750000 9.750001
v -18.250000 3.750000 9.750001
v -18.250000 3.250000 9.250001
v -21.750000 2.750000 9.000000
v -21.750000 2.750000 8.750000
v -21.500000 2.000000 8.500000
v -18.500000 0.500000 8.500000
v -18.500000 2.000000 8.500000
v -18.250000 2.500000 8.500000
v -21.750000 0.500000 8.250000
v -18.250000 0.500000 8.250000
v -21.750000 2.250000 8.250000
v -18.250000 2.000000 8.250000
v -18.250000 2.250000 8.250000
v -17.750000 0.000000 7.750000
v -21.250000 1.750000 11.250000
v -19.750000 1.750000 11.250000
v -19.000000 1.750000 11.250000
v -18.250000 2.000000 11.500000
v -18.250000 2.250000 11.250000
v -21.750000 2.250000 8.500000
v -18.500000 2.250000 8.750000
v -18.250000 2.250000 8.500000
v -18.250000 2.500000 11.000000
v -21.750000 2.500000 9.000000
v -18.500000 2.500000 8.750000
v -18.250000 2.500000 9.000000
v -18.250000 2.500000 8.750000
v -21.750000 2.750000 10.750000
v -21.500000 2.750000 11.000000
v -18.250000 2.750000 11.000000
v -18.250000 2.750000 10.750000
v -21.500000 2.750000 9.250000
v -18.250000 2.750000 9.250000
v -18.500000 2.750000 9.250000
v -21.500000 3.000000 10.750000
v -18.250000 3.000000 10.750000
v -18.500000 3.000000 10.750000
v -18.250000 3.000000 10.500000
v -21.500000 3.000000 9.750001
v -21.500000 3.000000 10.250000
v -21.250000 3.000000 9.750001
v -18.750000 3.000000 9.750001
v -21.750000 3.000000 9.250000
v -18.500000 3.000000 9.500000
v -21.750000 3.250000 10.250001
v -21.500000 3.250000 10.500001
v -18.500000 3.250000 10.500001
v -18.250000 3.250000 10.250001
v -18.500000 3.250000 9.750001
v -21.500000 3.500000 10.250001
v -18.500000 3.500000 9.750001
v -18.500000 3.500000 10.250001
v -21.750000 0.250000 11.750000
v -20.250000 0.500000 11.500000
v -19.000000 1.000000 11.500000
v -18.250000 2.250000 11.750000
v -18.250000 2.500000 11.250000
v -21.750000 2.750000 11.000000
v -18.250000 2.750000 8.750000
v -18.250000 3.000000 11.000000
v -18.250000 3.000000 9.250000
v -21.750000 3.250000 10.750001
v -18.250000 3.250000 10.750001
v -21.750000 3.250000 9.500001
v -18.250000 3.250000 9.500001
v -21.750000 3.250000 9.250001
v -21.750000 3.500000 10.500001
v -21.750000 3.500000 9.500001
v -18.250000 3.500000 9.500001
v -21.750000 0.250000 8.250000
v -18.250000 0.250000 11.750000
v -18.250000 0.250000 8.250000
vt 0.0059 0.5000
vt 0.0059 0.5000
vt 0.0059 0.5000
vt 0.0059 0.5000
vt 0.0059 0.5000
vt 0.0059 0.5000
vt 0.0059 0.5000
vt 0.0059 0.5000
vt 0.0059 0.5000
vt 0.0059 0.5000
vt 0.0059 0.5000
vt 0.0059 0.5000
vt 0.0059 0.5000
vt 0.0059 0.5000
vt 0.0059 0.5000
vt 0.0059 0.5000
vt 0.0059 0.5000
vt 0.0059 0.5000
vt 0.0059 0.5000
vt 0.0059 0.5000
vt 0.0059 0.5000
vt 0.0059 0.5000
vt 0.0059 0.5000
vt 0.0059 0.5000
vt 0.0059 0.5000
vt 0.0059 0.5000
vt 0.0059 0.5000
vt 0.0059 0.5000
vt 0.0059 0.5000
vt 0.0059 0.5000
vt 0.0059 0.5000
vt 0.0059 0.5000
vt 0.0059 0.5000
vt 0.0059 0.5000
vt 0.0059 0.5000
vt 0.0059 0.5000
vt 0.0059 0.5000
vt 0.0059 0.5000
vt 0.0059 0.5000
vt 0.0059 0.5000
vt 0.0059 0.5000
vt 0.0059 0.5000
vt 0.0059 0.5000
vt 0.0059 0.5000
vt 0.0059 0.5000
vt 0.0059 0.5000
vt 0.0059 0.5000
vt 0.0059 0.5000
vt 0.0059 0.5000
vt 0.0059 0.5000
vt 0.0059 0.5000
vt 0.0059 0.5000
vt 0.0059 0.5000
vt 0.0059 0.5000
vt 0.0059 0.5000
vt 0.0059 0.5000
vt 0.0059 0.5000
vt 0.0059 0.5000
vt 0.0059 0.5000
vt 0.0059 0.5000
vt 0.0059 0.5000
vt 0.0059 0.5000
vt 0.0059 0.5000
vt 0.0059 0.5000
vt 0.0059 0.5000
vt 0.0059 0.5000
vt 0.0059 0.5000
vt 0.0059 0.5000
vt 0.0059 0.5000
vt 0.0059 0.5000
vt 0.0059 0.5000
vt 0.0059 0.5000
vt 0.0059 0.5000
vt 0.0059 0.5000
vt 0.0059 0.5000
vt 0.0059 0.5000
vt 0.0059 0.5000
vt 0.0059 0.5000
vt 0.0059 0.5000
vt 0.0059 0.5000
vt 0.0059 0.5000
vt 0.0059 0.5000
vt 0.0059 0.5000
vt 0.0059 0.5000
vt 0.0176 0.5000
vt 0.0176 0.5000
vt 0.0176 0.5000
vt 0.0176 0.5000
vt 0.0176 0.5000
vt 0.0176 0.5000
vt 0.0020 0.5000
vt 0.0020 0.5000
vt 0.0020 0.5000
vt 0.0020 0.5000
vt 0.0020 0.5000
vt 0.0020 0.5000
vt 0.0020 0.5000
vt 0.0020 0.5000
vt 0.0098 0.5000
vt 0.0098 0.5000
vt 0.0098 0.5000
vt 0.0098 0.5000
vt 0.0098 0.5000
vt 0.0098 0.5000
vt 0.0098 0.5000
vt 0.0098 0.5000
vt 0.0098 0.5000
vt 0.0098 0.5000
vt 0.0098 0.5000
vt 0.0098 0.5000
vt 0.0098 0.5000
vt 0.0098 0.5000
vt 0.0098 0.5000
vt 0.0098 0.5000
vt 0.0137 0.5000
vt 0.0137 0.5000
vt 0.0137 0.5000
vt 0.0137 0.5000
vt 0.0137 0.5000
vt 0.0137 0.5000
vt 0.0137 0.5000
vt 0.0137 0.5000
vt 0.0137 0.5000
vt 0.0137 0.5000
vt 0.0137 0.5000
vt 0.0137 0.5000
vt 0.0137 0.5000
vt 0.0137 0.5000
vt 0.0137 0.5000
vt 0.0137 0.5000
vt 0.0176 0.5000
vt 0.0176 0.5000
vt 0.0176 0.5000
vt 0.0176 0.5000
vt 0.0176 0.5000
vt 0.0176 0.5000
vt 0.0176 0.5000
vt 0.0176 0.5000
vt 0.0176 0.5000
vt 0.0176 0.5000
vt 0.0176 0.5000
vt 0.0176 0.5000
vt 0.0176 0.5000
vt 0.0176 0.5000
vt 0.0176 0.5000
vt 0.0176 0.5000
vt 0.0176 0.5000
vt 0.0176 0.5000
vt 0.0176 0.5000
vt 0.0176 0.5000
vt 0.0176 0.5000
vt 0.0176 0.5000
vt 0.0176 0.5000
vt 0.0176 0.5000
vt 0.0176 0.5000
vt 0.0176 0.5000
vt 0.0176 0.5000
vt 0.0176 0.5000
vt 0.0176 0.5000
vt 0.0176 0.5000
vt 0.0176 0.5000
vt 0.0176 0.5000
vt 0.0176 0.5000
vt 0.0176 0.5000
vt 0.0176 0.5000
vt 0.0176 0.5000
vt 0.0176 0.5000
vt 0.0176 0.5000
vt 0.0176 0.5000
vt 0.0176 0.5000
vt 0.0176 0.5000
vt 0.0176 0.5000
vt 0.0176 0.5000
vt 0.0176 0.5000
vt 0.0176 0.5000
vt 0.0176 0.5000
vt 0.0176 0.5000
vt 0.0176 0.5000
vt 0.0176 0.5000
vt 0.0176 0.5000
vt 0.0176 0.5000
vt 0.0176 0.5000
vt 0.0176 0.5000
vt 0.0176 0.5000
vt 0.0176 0.5000
vt 0.0176 0.5000
vt 0.0176 0.5000
vt 0.0176 0.5000
vt 0.0176 0.5000
vt 0.0176 0.5000
vt 0.0176 0.5000
vt 0.0176 0.5000
vt 0.0176 0.5000
vt 0.0176 0.5000
vt 0.0176 0.5000
vt 0.0176 0.5000
vt 0.0176 0.5000
vt 0.0176 0.5000
vt 0.0176 0.5000
vt 0.0176 0.5000
vt 0.0176 0.5000
vt 0.0176 0.5000
vt 0.0176 0.5000
vt 0.0176 0.5000
vt 0.0176 0.5000
vt 0.0176 0.5000
vt 0.0176 0.5000
vt 0.0176 0.5000
vt 0.0176 0.5000
vt 0.0176 0.5000
vt 0.0176 0.5000
vt 0.0176 0.5000
vt 0.0176 0.5000
vt 0.0176 0.5000
vt 0.0176 0.5000
vt 0.0176 0.5000
vt 0.0176 0.5000
vt 0.0176 0.5000
vt 0.0176 0.5000
vt 0.0176 0.5000
vt 0.0176 0.5000
vt 0.0176 0.5000
vt 0.0176 0.5000
vt 0.0176 0.5000
vt 0.0176 0.5000
vt 0.0176 0.5000
vt 0.0176 0.5000
vt 0.0176 0.5000
vt 0.0176 0.5000
vt 0.0176 0.5000
vt 0.0176 0.5000
vt 0.0176 0.5000
vt 0.0176 0.5000
vt 0.0176 0.5000
vt 0.0176 0.5000
vt 0.0176 0.5000
vt 0.0176 0.5000
vt 0.0176 0.5000
vt 0.0176 0.5000
vt 0.0176 0.5000
vt 0.0176 0.5000
vt 0.0176 0.5000
vt 0.0176 0.5000
vt 0.0176 0.5000
vt 0.0176 0.5000
vt 0.0176 0.5000
vt 0.0176 0.5000
vt 0.0176 0.5000
vt 0.0176 0.5000
vt 0.0176 0.5000
vt 0.0176 0.5000
vt 0.0176 0.5000
vn -1.0000 0.0000 0.0000
vn 1.0000 0.0000 0.0000
vn 0.0000 0.0000 1.0000
vn 0.0000 0.0000 -1.0000
vn 0.0000 -1.0000 0.0000
vn 0.0000 1.0000 0.0000
usemtl wall.011
s off
f 58/1/1 19/2/1 59/3/1
f 113/4/1 19/2/1 58/1/1
f 89/5/1 92/6/1 23/7/1
f 58/1/1 20/8/1 89/5/1
f 148/9/1 154/10/1 101/11/1
f 83/12/1 113/4/1 21/13/1
f 74/14/1 147/15/1 26/16/1
f 101/11/1 26/16/1 147/15/1
f 89/5/1 22/17/1 92/6/1
f 82/18/1 21/13/1 23/7/1
f 23/7/1 21/13/1 89/5/1
f 92/6/1 137/19/1 95/20/1
f 113/4/1 58/1/1 89/5/1
f 129/21/2 90/22/2 86/23/2
f 140/24/1 23/7/1 70/25/1
f 25/26/1 23/7/1 140/24/1
f 143/27/1 24/28/1 95/20/1
f 98/29/1 24/28/1 143/27/1
f 148/9/1 24/28/1 98/29/1
f 147/15/1 140/24/1 70/25/1
f 74/14/1 140/24/1 147/15/1
f 79/30/1 140/24/1 74/14/1
f 154/10/1 148/9/1 98/29/1
f 148/9/1 101/11/1 147/15/1
f 23/7/1 92/6/1 24/28/1
f 24/28/1 70/25/1 23/7/1
f 95/20/1 24/28/1 92/6/1
f 75/31/1 74/14/1 26/16/1
f 158/32/1 26/16/1 101/11/1
f 69/33/1 26/16/1 158/32/1
f 28/34/1 29/35/1 162/36/1
f 30/37/1 29/35/1 28/34/1
f 62/38/1 31/39/1 163/40/1
f 125/41/1 31/39/1 62/38/1
f 32/42/2 33/43/2 60/44/2
f 60/44/2 33/43/2 123/45/2
f 34/46/2 64/47/2 61/48/2
f 61/48/2 64/47/2 124/49/2
f 35/50/2 114/51/2 86/23/2
f 86/23/2 114/51/2 115/52/2
f 106/53/2 96/54/2 93/55/2
f 93/55/2 37/56/2 90/22/2
f 43/57/2 152/58/2 157/59/2
f 129/21/2 115/52/2 84/60/2
f 107/61/2 42/62/2 43/57/2
f 43/57/2 157/59/2 107/61/2
f 93/55/2 38/63/2 40/64/2
f 38/63/2 129/21/2 133/65/2
f 107/61/2 155/66/2 42/62/2
f 61/48/3 62/38/3 86/23/3
f 86/23/2 115/52/2 129/21/2
f 90/22/2 129/21/2 38/63/2
f 40/64/2 38/63/2 142/67/2
f 142/67/2 38/63/2 41/68/2
f 96/54/2 106/53/2 145/69/2
f 145/69/2 106/53/2 99/70/2
f 99/70/2 106/53/2 42/62/2
f 40/64/2 142/67/2 43/57/2
f 43/57/2 142/67/2 152/58/2
f 152/58/2 142/67/2 80/71/2
f 99/70/2 42/62/2 155/66/2
f 96/54/2 39/72/2 93/55/2
f 93/55/2 40/64/2 106/53/2
f 38/63/2 93/55/2 90/22/2
f 36/73/2 86/23/2 90/22/2
f 157/59/2 152/58/2 77/74/2
f 107/61/2 157/59/2 160/75/2
f 160/75/2 157/59/2 159/76/2
f 32/42/3 58/1/3 59/3/3
f 60/44/3 58/1/3 32/42/3
f 28/34/3 58/1/3 60/44/3
f 34/46/3 28/34/3 162/36/3
f 28/34/3 61/48/3 86/23/3
f 61/48/3 28/34/3 34/46/3
f 163/40/3 34/46/3 162/36/3
f 35/50/3 163/40/3 162/36/3
f 35/50/3 62/38/3 163/40/3
f 86/23/3 58/1/3 28/34/3
f 86/23/3 62/38/3 35/50/3
f 27/77/3 147/15/3 70/25/3
f 149/78/3 147/15/3 27/77/3
f 40/64/3 150/79/3 71/80/3
f 43/57/3 150/79/3 40/64/3
f 24/28/4 148/9/4 102/81/4
f 102/81/4 148/9/4 103/82/4
f 104/83/4 105/84/4 106/53/4
f 106/53/4 105/84/4 42/62/4
f 19/2/4 113/4/4 114/51/4
f 114/51/4 113/4/4 115/52/4
f 123/45/5 28/34/5 60/44/5
f 30/37/5 28/34/5 123/45/5
f 124/49/5 62/38/5 61/48/5
f 125/41/5 62/38/5 124/49/5
f 58/85/5 45/86/5 85/87/5
f 7/88/5 46/89/5 115/90/5
f 147/15/5 103/82/5 148/9/5
f 149/78/5 103/82/5 147/15/5
f 150/79/5 42/62/5 105/84/5
f 43/57/5 42/62/5 150/79/5
f 34/46/6 163/40/6 64/47/6
f 64/47/6 163/40/6 31/39/6
f 24/28/6 102/81/6 70/25/6
f 70/25/6 102/81/6 27/77/6
f 104/83/6 106/53/6 71/80/6
f 71/80/6 106/53/6 40/64/6
f 89/5/1 21/13/1 113/4/1
usemtl grass.011
f 1/91/1 2/92/1 3/93/1
f 4/94/1 2/92/1 1/91/1
f 55/95/2 122/96/2 5/97/2
f 5/97/2 122/96/2 54/98/2
f 55/95/3 1/91/3 3/93/3
f 5/97/3 1/91/3 55/95/3
f 2/92/4 4/94/4 122/96/4
f 122/96/4 4/94/4 54/98/4
f 2/92/5 55/95/5 3/93/5
f 122/96/5 55/95/5 2/92/5
f 1/91/6 5/97/6 4/94/6
f 4/94/6 5/97/6 54/98/6
usemtl objects.011
f 56/99/1 178/100/1 161/101/1
f 117/102/1 178/100/1 56/99/1
f 179/103/2 180/104/2 44/105/2
f 44/105/2 180/104/2 118/106/2
f 179/103/3 56/99/3 161/101/3
f 44/105/3 56/99/3 179/103/3
f 178/100/4 117/102/4 180/104/4
f 180/104/4 117/102/4 118/106/4
f 56/99/6 44/105/6 59/107/6
f 59/107/6 44/105/6 32/108/6
f 32/108/6 44/105/6 162/109/6
f 162/109/6 44/105/6 35/110/6
f 32/108/6 162/109/6 33/111/6
f 33/111/6 162/109/6 29/112/6
f 56/99/6 59/107/6 19/113/6
f 35/110/6 44/105/6 114/114/6
f 56/99/6 19/113/6 117/102/6
f 19/113/6 114/114/6 117/102/6
f 114/114/6 44/105/6 118/106/6
f 117/102/6 114/114/6 118/106/6
f 180/104/5 161/101/5 178/100/5
f 180/104/5 179/103/5 161/101/5
usemtl windows.011
f 103/115/1 27/116/1 102/117/1
f 149/118/1 27/116/1 103/115/1
f 104/119/2 71/120/2 105/121/2
f 105/121/2 71/120/2 150/122/2
f 29/123/3 123/124/3 33/125/3
f 30/126/3 123/124/3 29/123/3
f 31/127/3 124/128/3 64/129/3
f 125/130/3 124/128/3 31/127/3
usemtl red.002
f 6/131/1 85/87/1 57/132/1
f 63/133/1 85/87/1 6/131/1
f 128/134/1 7/88/1 8/135/1
f 119/136/1 7/88/1 128/134/1
f 9/137/1 88/138/1 63/133/1
f 65/139/1 88/138/1 9/137/1
f 81/140/1 128/134/1 10/141/1
f 11/142/1 128/134/1 81/140/1
f 12/143/1 91/144/1 65/139/1
f 166/145/1 91/144/1 12/143/1
f 111/146/1 81/140/1 132/147/1
f 112/148/1 81/140/1 111/146/1
f 13/149/1 136/150/1 166/145/1
f 94/151/1 136/150/1 13/149/1
f 151/152/1 111/146/1 78/153/1
f 14/154/1 111/146/1 151/152/1
f 170/155/1 15/156/1 94/151/1
f 97/157/1 15/156/1 170/155/1
f 172/158/1 151/152/1 16/159/1
f 174/160/1 151/152/1 172/158/1
f 175/161/1 153/162/1 97/157/1
f 100/163/1 153/162/1 175/161/1
f 68/164/1 172/158/1 17/165/1
f 176/166/1 172/158/1 68/164/1
f 18/167/1 68/164/1 100/163/1
f 108/168/1 68/164/1 18/167/1
f 45/86/2 126/169/2 164/170/2
f 164/170/2 126/169/2 87/171/2
f 46/89/2 120/172/2 130/173/2
f 130/173/2 120/172/2 121/174/2
f 87/171/2 127/175/2 47/176/2
f 47/176/2 127/175/2 165/177/2
f 48/178/2 130/173/2 135/179/2
f 135/179/2 130/173/2 116/180/2
f 165/177/2 131/181/2 49/182/2
f 49/182/2 131/181/2 138/183/2
f 134/184/2 135/179/2 50/185/2
f 50/185/2 135/179/2 167/186/2
f 138/183/2 139/187/2 168/188/2
f 168/188/2 139/187/2 144/189/2
f 141/190/2 50/185/2 169/191/2
f 169/191/2 50/185/2 51/192/2
f 144/189/2 146/193/2 171/194/2
f 171/194/2 146/193/2 66/195/2
f 76/196/2 169/191/2 173/197/2
f 173/197/2 169/191/2 110/198/2
f 66/195/2 156/199/2 52/200/2
f 52/200/2 156/199/2 67/201/2
f 72/202/2 173/197/2 73/203/2
f 73/203/2 173/197/2 177/204/2
f 67/201/2 73/203/2 53/205/2
f 53/205/2 73/203/2 109/206/2
f 45/86/3 6/131/3 57/132/3
f 164/170/3 6/131/3 45/86/3
f 87/171/3 9/137/3 63/133/3
f 47/176/3 9/137/3 87/171/3
f 165/177/3 12/143/3 65/139/3
f 49/182/3 12/143/3 165/177/3
f 138/183/3 13/149/3 166/145/3
f 168/188/3 13/149/3 138/183/3
f 144/189/3 170/155/3 94/151/3
f 171/194/3 170/155/3 144/189/3
f 66/195/3 175/161/3 97/157/3
f 52/200/3 175/161/3 66/195/3
f 67/201/3 18/167/3 100/163/3
f 53/205/3 18/167/3 67/201/3
f 26/207/3 68/164/3 17/165/3
f 69/208/3 68/164/3 26/207/3
f 72/202/3 159/209/3 157/210/3
f 73/203/3 159/209/3 72/202/3
f 74/211/3 172/158/3 16/159/3
f 75/212/3 172/158/3 74/211/3
f 76/196/3 77/213/3 152/214/3
f 173/197/3 77/213/3 76/196/3
f 140/215/3 151/152/3 78/153/3
f 79/216/3 151/152/3 140/215/3
f 141/190/3 80/217/3 142/218/3
f 169/191/3 80/217/3 141/190/3
f 23/219/3 111/146/3 132/147/3
f 25/220/3 111/146/3 23/219/3
f 134/184/3 41/221/3 38/222/3
f 50/185/3 41/221/3 134/184/3
f 21/223/3 81/140/3 10/141/3
f 82/224/3 81/140/3 21/223/3
f 48/178/3 133/225/3 129/226/3
f 135/179/3 133/225/3 48/178/3
f 113/227/3 128/134/3 8/135/3
f 83/228/3 128/134/3 113/227/3
f 46/89/3 84/229/3 115/90/3
f 130/173/3 84/229/3 46/89/3
f 85/87/4 63/133/4 58/85/4
f 58/85/4 63/133/4 20/230/4
f 86/231/4 36/232/4 126/169/4
f 126/169/4 36/232/4 87/171/4
f 88/138/4 65/139/4 89/233/4
f 89/233/4 65/139/4 22/234/4
f 90/235/4 37/236/4 127/175/4
f 127/175/4 37/236/4 165/177/4
f 91/144/4 166/145/4 92/237/4
f 92/237/4 166/145/4 137/238/4
f 93/239/4 39/240/4 131/181/4
f 131/181/4 39/240/4 138/183/4
f 136/150/4 94/151/4 95/241/4
f 95/241/4 94/151/4 143/242/4
f 96/243/4 145/244/4 139/187/4
f 139/187/4 145/244/4 144/189/4
f 15/156/4 97/157/4 98/245/4
f 98/245/4 97/157/4 154/246/4
f 99/247/4 155/248/4 146/193/4
f 146/193/4 155/248/4 66/195/4
f 153/162/4 100/163/4 101/249/4
f 101/249/4 100/163/4 158/250/4
f 107/251/4 160/252/4 156/199/4
f 156/199/4 160/252/4 67/201/4
f 68/164/4 108/168/4 73/203/4
f 73/203/4 108/168/4 109/206/4
f 172/158/4 176/166/4 173/197/4
f 173/197/4 176/166/4 177/204/4
f 151/152/4 174/160/4 169/191/4
f 169/191/4 174/160/4 110/198/4
f 111/146/4 14/154/4 50/185/4
f 50/185/4 14/154/4 51/192/4
f 81/140/4 112/148/4 135/179/4
f 135/179/4 112/148/4 167/186/4
f 128/134/4 11/142/4 130/173/4
f 130/173/4 11/142/4 116/180/4
f 7/88/4 119/136/4 120/172/4
f 120/172/4 119/136/4 121/174/4
f 85/87/5 45/86/5 57/132/5
f 86/231/5 45/86/5 58/85/5
f 126/169/5 45/86/5 86/231/5
f 7/88/5 113/227/5 8/135/5
f 7/88/5 115/90/5 113/227/5
f 120/172/5 46/89/5 7/88/5
f 88/138/5 20/230/5 63/133/5
f 89/233/5 20/230/5 88/138/5
f 90/235/5 87/171/5 36/232/5
f 127/175/5 87/171/5 90/235/5
f 128/134/5 21/223/5 10/141/5
f 83/228/5 21/223/5 128/134/5
f 84/229/5 48/178/5 129/226/5
f 130/173/5 48/178/5 84/229/5
f 91/144/5 22/234/5 65/139/5
f 92/237/5 22/234/5 91/144/5
f 93/239/5 165/177/5 37/236/5
f 131/181/5 165/177/5 93/239/5
f 81/140/5 23/219/5 132/147/5
f 82/224/5 23/219/5 81/140/5
f 133/225/5 134/184/5 38/222/5
f 135/179/5 134/184/5 133/225/5
f 136/150/5 137/238/5 166/145/5
f 95/241/5 137/238/5 136/150/5
f 96/243/5 138/183/5 39/240/5
f 139/187/5 138/183/5 96/243/5
f 111/146/5 140/215/5 78/153/5
f 25/220/5 140/215/5 111/146/5
f 41/221/5 141/190/5 142/218/5
f 50/185/5 141/190/5 41/221/5
f 15/156/5 143/242/5 94/151/5
f 98/245/5 143/242/5 15/156/5
f 99/247/5 144/189/5 145/244/5
f 146/193/5 144/189/5 99/247/5
f 151/152/5 74/211/5 16/159/5
f 79/216/5 74/211/5 151/152/5
f 80/217/5 76/196/5 152/214/5
f 169/191/5 76/196/5 80/217/5
f 153/162/5 154/246/5 97/157/5
f 101/249/5 154/246/5 153/162/5
f 107/251/5 66/195/5 155/248/5
f 156/199/5 66/195/5 107/251/5
f 172/158/5 26/207/5 17/165/5
f 75/212/5 26/207/5 172/158/5
f 77/213/5 72/202/5 157/210/5
f 173/197/5 72/202/5 77/213/5
f 68/164/5 158/250/5 100/163/5
f 69/208/5 158/250/5 68/164/5
f 159/209/5 67/201/5 160/252/5
f 73/203/5 67/201/5 159/209/5
f 6/131/6 164/170/6 63/133/6
f 63/133/6 164/170/6 87/171/6
f 128/134/6 130/173/6 119/136/6
f 119/136/6 130/173/6 121/174/6
f 9/137/6 47/176/6 65/139/6
f 65/139/6 47/176/6 165/177/6
f 81/140/6 135/179/6 11/142/6
f 11/142/6 135/179/6 116/180/6
f 12/143/6 49/182/6 166/145/6
f 166/145/6 49/182/6 138/183/6
f 111/146/6 50/185/6 112/148/6
f 112/148/6 50/185/6 167/186/6
f 13/149/6 168/188/6 94/151/6
f 94/151/6 168/188/6 144/189/6
f 151/152/6 169/191/6 14/154/6
f 14/154/6 169/191/6 51/192/6
f 170/155/6 171/194/6 97/157/6
f 97/157/6 171/194/6 66/195/6
f 172/158/6 173/197/6 174/160/6
f 174/160/6 173/197/6 110/198/6
f 175/161/6 52/200/6 100/163/6
f 100/163/6 52/200/6 67/201/6
f 68/164/6 73/203/6 176/166/6
f 176/166/6 73/203/6 177/204/6
f 18/167/6 53/205/6 108/168/6
f 108/168/6 53/205/6 109/206/6
